PathFileType	4	(X/Y/Z)	Kaydara	
DataRate	CameraRate	NumFrames	NumMarkers	Units	OrigDataRate	OrigDataStartFrame	OrigNumFrames	
240.00	240.00	4	72	mm	240.00	1	355	
Frame#	Time	Hips			RightUpLeg			RightLeg			RightFoot			RightFoot_End			LeftUpLeg			LeftLeg			LeftFoot			LeftFoot_End			Spine			Spine1			Spine2			Spine3			Neck			Head			Head_End			RightShoulder			RightArm			RightForeArm			RightHand			RightHandThumb1			RightHandThumb2			RightHandThumb3			RightHandThumb3_End			RightInHandIndex			RightHandIndex1			RightHandIndex2			RightHandIndex3			RightHandIndex3_End			RightInHandMiddle			RightHandMiddle1			RightHandMiddle2			RightHandMiddle3			RightHandMiddle3_End			RightInHandRing			RightHandRing1			RightHandRing2			RightHandRing3			RightHandRing3_End			RightInHandPinky			RightHandPinky1			RightHandPinky2			RightHandPinky3			RightHandPinky3_End			LeftShoulder			LeftArm			LeftForeArm			LeftHand			LeftHandThumb1			LeftHandThumb2			LeftHandThumb3			LeftHandThumb3_End			LeftInHandIndex			LeftHandIndex1			LeftHandIndex2			LeftHandIndex3			LeftHandIndex3_End			LeftInHandMiddle			LeftHandMiddle1			LeftHandMiddle2			LeftHandMiddle3			LeftHandMiddle3_End			LeftInHandRing			LeftHandRing1			LeftHandRing2			LeftHandRing3			LeftHandRing3_End			LeftInHandPinky			LeftHandPinky1			LeftHandPinky2			LeftHandPinky3			LeftHandPinky3_End			
		X1	Y1	Z1	X2	Y2	Z2	X3	Y3	Z3	X4	Y4	Z4	X5	Y5	Z5	X6	Y6	Z6	X7	Y7	Z7	X8	Y8	Z8	X9	Y9	Z9	X10	Y10	Z10	X11	Y11	Z11	X12	Y12	Z12	X13	Y13	Z13	X14	Y14	Z14	X15	Y15	Z15	X16	Y16	Z16	X17	Y17	Z17	X18	Y18	Z18	X19	Y19	Z19	X20	Y20	Z20	X21	Y21	Z21	X22	Y22	Z22	X23	Y23	Z23	X24	Y24	Z24	X25	Y25	Z25	X26	Y26	Z26	X27	Y27	Z27	X28	Y28	Z28	X29	Y29	Z29	X30	Y30	Z30	X31	Y31	Z31	X32	Y32	Z32	X33	Y33	Z33	X34	Y34	Z34	X35	Y35	Z35	X36	Y36	Z36	X37	Y37	Z37	X38	Y38	Z38	X39	Y39	Z39	X40	Y40	Z40	X41	Y41	Z41	X42	Y42	Z42	X43	Y43	Z43	X44	Y44	Z44	X45	Y45	Z45	X46	Y46	Z46	X47	Y47	Z47	X48	Y48	Z48	X49	Y49	Z49	X50	Y50	Z50	X51	Y51	Z51	X52	Y52	Z52	X53	Y53	Z53	X54	Y54	Z54	X55	Y55	Z55	X56	Y56	Z56	X57	Y57	Z57	X58	Y58	Z58	X59	Y59	Z59	X60	Y60	Z60	X61	Y61	Z61	X62	Y62	Z62	X63	Y63	Z63	X64	Y64	Z64	X65	Y65	Z65	X66	Y66	Z66	X67	Y67	Z67	X68	Y68	Z68	X69	Y69	Z69	X70	Y70	Z70	X71	Y71	Z71	X72	Y72	Z72	

1	0.0	-78.98710000000028	906.651	56.2195	-23.80836999999974	879.96417	-14.39285	-113.28826000000026	481.5375199999999	-106.99662999999998	-108.14605000000029	99.73394999999996	-183.41058	-181.79149000000052	23.508810000000004	-24.336110000000005	-123.36349999999948	905.8990199999998	139.27322	-188.58438999999998	503.50716	235.68815	-261.72376000000077	70.36622	281.59227	-391.37161000000015	-8.839	165.58978	-129.15176000000065	1029.4495500000003	2.5514800000000006	-189.8506699999998	1088.6366899999998	-44.95185	-258.2687300000007	1144.4063099999998	-94.33976000000001	-331.05893000000015	1188.7039999999997	-141.07888999999997	-408.80782999999974	1236.41202	-190.60619	-480.11805000000004	1280.2760399999997	-234.73287000000005	-596.9902199999997	1380.4339200000002	-276.56042	-372.97051999999985	1209.1572500000002	-201.24831	-380.60577999999987	1125.40539	-296.43454999999994	-435.56047000000035	882.7302999999999	-204.18552	-462.3609899999992	638.5161499999999	-120.28492	-486.5171300000002	607.6024600000001	-127.88402999999997	-512.45075	588.73042	-109.78566000000001	-527.6147099999998	575.74615	-93.78681999999998	-537.7786299999998	565.05709	-77.54482000000007	-477.57017000000087	603.5909300000001	-117.96427	-493.4554699999999	558.34858	-95.09519	-508.6826000000001	536.1716299999999	-70.88153	-521.56617	530.8747699999999	-55.812749999999994	-534.5346899999995	532.2176999999998	-43.330100000000016	-469.3383899999999	606.03836	-109.13157000000001	-480.37867000000006	563.2314899999999	-82.05051	-495.86201000000074	539.51333	-54.526940000000025	-510.8621400000002	533.3538599999999	-35.818370000000016	-524.7878700000001	534.93556	-21.90310000000005	-463.05913000000055	608.8195000000001	-103.53236999999996	-467.3324700000003	572.57042	-74.57012000000003	-479.65353999999934	552.45813	-49.49653000000001	-493.4987600000004	546.8145300000001	-30.87498999999997	-506.2969499999999	548.4428100000001	-17.518339999999966	-455.8197199999995	614.1429	-97.28837999999999	-455.08619	583.8188500000002	-67.06062000000003	-463.1022499999999	568.74701	-45.41740999999996	-472.30601000000024	565.13041	-31.07764000000003	-483.1280399999996	566.8604800000002	-18.810080000000028	-392.8376499999995	1233.16443	-145.80616000000003	-397.8621299999995	1229.3166799999997	-17.53913	-367.5925299999999	974.0436499999998	-80.27881	-345.36802999999964	719.2083699999998	-120.95879999999997	-376.87772999999925	696.4021299999999	-111.79712000000004	-398.1226399999996	671.7883599999999	-129.09084000000001	-409.0411300000005	653.07661	-142.69809000000004	-414.8271800000002	636.1337299999999	-155.37973	-366.1081800000002	687.8835199999999	-114.245	-382.4066700000003	637.6297	-119.82365999999999	-392.4903399999994	606.90768	-136.08591	-399.96159999999963	595.31947	-151.28476	-406.9565199999997	590.79477	-167.29728	-354.93768999999975	685.5625500000001	-118.89280999999997	-364.7929899999999	635.2898599999999	-126.84453999999997	-374.26792000000023	601.6280900000002	-145.20053000000001	-382.54831000000013	587.58118	-163.83042000000003	-389.84547999999995	582.59817	-181.49348	-346.6205200000004	685.14176	-121.91975999999997	-348.2056499999999	639.5365699999999	-131.33908000000002	-354.88646999999946	610.13579	-147.95108999999997	-362.0357899999999	596.5540300000001	-166.24658000000002	-368.4999600000001	591.8534	-183.00854	-336.6357399999997	686.61228	-126.14785	-331.90803999999935	645.46101	-137.01182000000003	-334.78976000000057	622.02206	-151.23000999999996	-338.8106399999997	612.1658199999999	-165.01788	-343.84976000000006	608.0308100000001	-180.12123
2	0.004	-78.98710000000028	906.651	56.2195	-23.748019999999997	879.97752	-14.350710000000003	-113.30187999999998	481.52845	-106.78635	-108.14383999999973	99.73061999999999	-183.22789	-181.80034999999953	23.51795	-24.152570000000004	-123.43741999999929	905.88143	139.23352000000003	-188.8227799999995	503.5139100000001	235.63859000000002	-261.92185999999947	70.37383	281.6149600000001	-391.57582999999977	-8.817460000000002	165.60979	-129.09282000000076	1029.4681200000002	2.5389	-189.77095999999983	1088.65886	-44.98647	-258.1674700000003	1144.4322500000003	-94.39997	-330.9400600000008	1188.7362199999998	-141.16055999999998	-408.6702500000001	1236.45092	-190.71078	-479.96371	1280.32103	-234.85846	-596.8358900000003	1380.4761599999997	-276.69259999999997	-372.83133	1209.1942299999998	-201.34252	-380.37233000000015	1125.53683	-296.61929999999995	-435.46673999999985	882.9622300000001	-204.18945000000002	-462.8081999999995	638.84286	-120.18762000000004	-486.9556599999996	607.95102	-127.90226999999999	-513.0155500000001	589.1232699999999	-109.93964999999997	-528.2869899999996	576.1692099999998	-94.01873999999998	-538.5572300000003	565.5047699999999	-77.82751999999999	-478.0709800000004	603.93706	-117.92766	-494.14090000000033	558.73123	-95.11540000000002	-509.5337499999996	536.5911000000001	-70.97293999999994	-522.5105600000006	531.32106	-55.97492	-535.5496300000004	532.68885	-43.568700000000035	-469.8876999999993	606.38201	-109.04932	-481.13426999999956	563.6094199999999	-81.99898999999999	-496.8042999999998	539.931	-54.546959999999956	-511.9197100000001	533.80369	-35.920789999999954	-525.924	535.4125	-22.08771999999999	-463.63776999999936	609.1603599999997	-103.41601999999997	-468.1208400000005	572.9392500000001	-74.45047999999997	-480.6102799999999	552.8610999999999	-49.432889999999986	-494.5697	547.2482499999999	-30.887459999999976	-507.4431799999993	548.9019000000001	-17.606510000000014	-456.4285200000004	614.4803599999999	-97.13437000000002	-455.9052700000002	584.1795100000002	-66.87897999999996	-464.0640600000006	569.1341199999999	-45.27073999999999	-473.35494000000017	565.53953	-30.98169999999999	-484.24586999999974	567.29182	-18.778440000000046	-392.71443999999974	1233.20076	-145.90582	-397.87932999999975	1229.3291799999997	-17.645079999999993	-367.53261999999995	974.09064	-80.48770999999999	-345.1017499999998	719.2150000000001	-120.79995000000002	-376.6262800000004	696.36262	-111.80582000000001	-397.75414999999975	671.73126	-129.21749000000005	-408.5814700000001	653.0131899999999	-142.88875	-414.28326000000015	636.0701199999999	-155.60824999999997	-365.8337899999997	687.8593999999999	-114.20573999999999	-382.03936000000067	637.5876899999998	-119.89284999999998	-392.00324	606.8619800000001	-136.22183000000007	-399.38484999999946	595.2728399999999	-151.46371999999997	-406.2953200000002	590.74829	-167.5129	-354.63764999999967	685.5556000000001	-118.80006	-364.3884600000001	635.27476	-126.82864000000001	-373.72951999999987	601.61129	-145.25002	-381.90023999999994	587.56438	-163.92827999999997	-389.10426000000007	582.58209	-181.62971999999996	-346.3052000000007	685.1473500000001	-121.78644	-347.7848299999996	639.54558	-131.23939	-354.34591	610.14573	-147.9007	-361.3878000000004	596.5652399999999	-166.23874999999998	-367.7636300000004	591.86589	-183.03486999999998	-336.3017399999999	686.63327	-125.96469999999997	-331.4673299999995	645.49443	-136.82881	-334.24884999999995	622.0599499999998	-151.07430000000002	-338.1892800000005	612.20645	-164.88732000000002	-343.14894000000004	608.0736100000003	-180.01755
3	0.008	-78.98710000000028	906.651	56.2195	-23.688350000000355	879.9907700000001	-14.30897	-113.31026999999995	481.52003999999994	-106.58516000000002	-108.13018000000011	99.72903	-183.05928	-181.79751000000033	23.52944	-23.9827	-123.51098999999977	905.8636999999999	139.19392000000002	-189.10991000000013	503.5281100000001	235.58718999999996	-262.2072500000004	70.38465	281.53447	-391.8570099999997	-8.819439999999997	165.53333999999998	-129.0323900000003	1029.48787	2.52771	-189.70538000000033	1088.67643	-45.00695	-258.0963499999998	1144.4474	-94.43084000000002	-330.8681400000005	1188.75335	-141.1908	-408.5981499999998	1236.4692200000002	-190.74018999999998	-479.8913700000003	1280.3404599999997	-234.88711999999998	-596.7514199999996	1380.5045700000003	-276.73363	-372.7611200000001	1209.21006	-201.37201000000002	-380.2019399999999	1125.65035	-296.74234	-435.4323000000004	883.17718	-204.12767000000002	-463.3107	639.1483999999998	-120.03916999999998	-487.4480300000005	608.27754	-127.86863	-513.6305599999996	589.4917400000002	-110.04093999999998	-529.0067099999997	576.56623	-94.19779	-539.3807299999999	565.9250299999999	-78.05752000000001	-478.6247199999998	604.26112	-117.84067999999996	-494.87425000000076	559.0898200000001	-95.08733999999998	-510.4287599999998	536.98442	-71.01676000000003	-523.4965400000001	531.73972	-56.089020000000005	-536.6044999999995	533.1310100000001	-43.75824	-470.4893999999995	606.7035699999999	-108.91768999999996	-481.93708999999944	563.9632999999998	-81.90066000000002	-497.7893100000001	540.3223600000001	-54.521019999999965	-513.0172700000003	534.2254100000001	-35.97674999999998	-527.0982800000002	535.8598300000001	-22.224789999999985	-464.26857999999993	609.4791700000001	-103.25092000000001	-468.9565199999997	573.2843200000001	-74.28498000000002	-481.61037000000033	553.23835	-49.32427000000001	-495.6813199999997	547.6545399999999	-30.854529999999954	-508.62834999999995	549.3321400000001	-17.64828	-457.0893100000003	614.79583	-96.93222000000003	-456.7718100000002	584.5166699999999	-66.65226999999999	-465.07011000000057	569.4961799999999	-45.07985999999994	-474.44614	565.92233	-30.84132999999997	-485.4044100000001	567.6956	-18.701549999999997	-392.6404400000001	1233.2208099999998	-145.93578	-397.9548500000001	1229.3264599999998	-17.681830000000005	-367.52091999999993	974.1096000000001	-80.57036999999997	-344.90257999999994	719.1930099999998	-120.51723000000001	-376.44285000000036	696.29637	-111.69241999999997	-397.4499800000003	671.64456	-129.22086999999996	-408.1833800000004	652.9179	-142.95426	-413.79845000000023	635.9724799999999	-155.70916000000003	-365.62729000000036	687.8080500000001	-114.04069000000001	-381.7386400000005	637.51768	-119.8296	-391.5795500000004	606.78553	-136.22093	-398.86852999999974	595.19286	-151.50465000000003	-405.69141000000036	590.66569	-167.59052999999994	-354.40495999999985	685.5205299999999	-118.57889000000003	-364.04971000000023	635.2302799999999	-126.6764	-373.2533599999997	601.56202	-145.15806999999998	-381.31077000000005	587.51191	-163.88308000000006	-388.4182099999998	582.5272599999998	-181.62288	-346.0568999999996	685.1242300000001	-121.523	-347.4294	639.5243	-131.00097999999997	-353.8675800000001	610.1225500000002	-147.70680999999996	-360.7985200000003	596.5401799999999	-166.08569999999995	-367.08273999999983	591.8391899999999	-182.91585000000003	-336.0342499999997	686.62471	-125.64973999999998	-331.0913899999996	645.49643	-136.50501000000003	-333.77008000000023	622.0639800000001	-150.77353	-337.6274400000002	612.21082	-164.61023	-342.5047199999999	608.0775199999999	-179.76708999999997
4	0.013	-78.98710000000028	906.651	56.2195	-23.6227200000003	879.99791	-14.26015	-113.33004000000074	481.51329	-106.39326	-108.12481000000025	99.72825	-182.89547999999996	-181.8047999999999	23.534439999999996	-23.82199	-123.59328000000005	905.8520600000002	139.14959	-189.38851999999952	503.54572	235.53113999999997	-262.5736399999996	70.40661	281.37962999999996	-392.22190000000046	-8.791619999999998	165.37283	-128.95982000000004	1029.50784	2.505829999999999	-189.63284999999996	1088.68947	-45.03741000000001	-258.0236700000005	1144.45303	-94.46986	-330.80135000000064	1188.75774	-141.22184000000001	-408.53948000000037	1236.4696699999997	-190.76227	-479.83987999999954	1280.3375199999998	-234.90101000000004	-596.6860900000001	1380.51262	-276.75983	-372.70602000000054	1209.2071199999998	-201.3974	-380.03480000000036	1125.7446900000002	-296.86154	-435.40074000000004	883.3661700000001	-204.08022999999997	-463.8057600000002	639.4250200000001	-119.91374000000002	-487.9310000000005	608.5735499999998	-127.85610000000003	-514.2316700000001	589.8270799999998	-110.16141000000002	-529.7090499999995	576.9283899999999	-94.39515	-540.1836800000001	566.30908	-78.30552999999998	-479.16775999999936	604.55503	-117.77645000000001	-495.59021999999914	559.41629	-95.08273	-511.3011999999999	537.3436200000002	-71.08384000000001	-524.45723	532.1227399999998	-56.22542999999996	-537.6321400000006	533.5360700000001	-43.96873000000005	-471.0796999999993	606.9953199999999	-108.81002000000001	-482.72159999999985	564.2856299999999	-81.82763999999997	-498.7502800000002	540.68004	-54.520339999999976	-514.08745	534.6116400000001	-36.05687999999998	-528.2430599999998	536.2700800000001	-22.38461000000001	-464.88762999999926	609.76846	-103.11063999999999	-469.7739900000006	573.5986	-74.14629000000002	-482.58718000000044	553.5829999999999	-49.242549999999994	-496.7664199999999	548.02649	-30.84753999999998	-509.78498000000036	549.7265799999999	-17.714689999999962	-457.7381400000004	615.0821399999999	-96.75574999999998	-457.6203399999995	584.8237200000001	-66.45364000000001	-466.0540199999996	569.82676	-44.91738000000004	-475.5128100000002	566.27245	-30.728790000000004	-486.5366100000001	568.06542	-18.65137999999996	-392.57248999999956	1233.22746	-145.96072000000004	-398.04373999999916	1229.30597	-17.714200000000012	-367.4863599999999	974.1454200000002	-80.77110000000003	-344.66651	719.1793300000002	-120.28515000000002	-376.22371999999996	696.2393799999999	-111.63513	-397.10667999999987	671.5673299999999	-129.28305000000003	-407.74362999999994	652.83208	-143.07962999999998	-413.2697599999992	635.8842099999999	-155.87007000000003	-365.3851300000006	687.7656799999999	-113.92936000000003	-381.40167999999994	637.457	-119.82130000000001	-391.11684999999943	606.71839	-136.2754	-398.3103199999996	595.1220600000001	-151.60154	-405.0424699999994	590.59212	-167.72481999999997	-354.1360999999997	685.4940899999999	-118.40909999999997	-363.6739699999998	635.1946	-126.57550000000003	-372.73713000000043	601.52145	-145.1176	-380.6777400000001	587.4679699999999	-163.88991999999996	-387.6851399999996	582.48081	-181.66876000000002	-345.7721300000003	685.1094800000001	-121.30927	-347.03656000000046	639.5113300000003	-130.81078999999994	-353.34907999999996	610.1075399999999	-147.56094	-360.1656700000003	596.5231199999998	-165.98103000000003	-366.35501999999997	591.82032	-182.8458	-335.7297699999999	686.6242100000001	-125.38253	-330.6773599999997	645.50624	-136.22639	-333.25089000000025	622.0756399999998	-150.51728	-337.02266000000054	612.2226599999999	-164.37767999999994	-341.8146400000005	608.0887300000002	-179.56155000000007
